<svg width="50" height="50" viewBox="0 0 50 50" fill="none" xmlns="http://www.w3.org/2000/svg">
<path d="M24.9608 25.934C24.6128 25.934 24.2768 25.964 23.9528 26.024C23.6288 26.084 23.3348 26.174 23.0708 26.294C23.0588 26.39 23.0468 26.498 23.0348 26.618C23.0348 26.726 23.0348 26.834 23.0348 26.942C23.0348 27.422 23.0648 27.878 23.1248 28.31C23.1968 28.73 23.3108 29.102 23.4668 29.426C23.6348 29.738 23.8568 29.99 24.1328 30.182C24.4208 30.362 24.7748 30.452 25.1948 30.452C25.5428 30.452 25.8368 30.38 26.0768 30.236C26.3288 30.092 26.5328 29.906 26.6888 29.678C26.8448 29.45 26.9588 29.204 27.0308 28.94C27.1028 28.664 27.1388 28.4 27.1388 28.148C27.1388 27.428 26.9648 26.882 26.6168 26.51C26.2688 26.126 25.7168 25.934 24.9608 25.934ZM25.2308 24.206C25.9748 24.206 26.6048 24.314 27.1208 24.53C27.6488 24.734 28.0748 25.016 28.3988 25.376C28.7228 25.736 28.9568 26.156 29.1008 26.636C29.2568 27.104 29.3348 27.596 29.3348 28.112C29.3348 28.58 29.2508 29.06 29.0828 29.552C28.9268 30.044 28.6748 30.494 28.3268 30.902C27.9908 31.298 27.5648 31.628 27.0488 31.892C26.5328 32.144 25.9208 32.27 25.2128 32.27C23.7848 32.27 22.6928 31.802 21.9368 30.866C21.1928 29.918 20.8208 28.616 20.8208 26.96C20.8208 25.76 20.9948 24.698 21.3428 23.774C21.7028 22.838 22.2068 22.052 22.8548 21.416C23.5148 20.78 24.3068 20.3 25.2308 19.976C26.1668 19.64 27.2168 19.466 28.3808 19.454L28.5068 21.254C27.8588 21.266 27.2528 21.338 26.6888 21.47C26.1248 21.59 25.6208 21.782 25.1768 22.046C24.7328 22.31 24.3488 22.652 24.0248 23.072C23.7128 23.492 23.4728 24.008 23.3048 24.62C23.8928 24.344 24.5348 24.206 25.2308 24.206Z" fill="#0597F2"/>
<path d="M41.2201 50.0001C44.0416 48.8545 46.204 46.7867 47.9217 43.7525C49.6395 40.7183 50.3046 37.7917 49.8715 34.7184L48.6514 34C49.049 36.1319 48.054 40.0349 46.4425 42.8815C44.8309 45.7282 42.0091 48.567 39.9999 49.2817L41.2201 50.0001Z" fill="#A7DAFF"/>
<path d="M0.129762 15.2817L1.34978 16.0001C0.952165 13.8682 1.95183 9.95675 3.56321 7.11008C5.17459 4.2634 7.9911 1.43318 10.0001 0.718429L8.78008 0C5.95413 1.15415 3.80167 3.20492 2.08415 6.2391C0.366633 9.27329 -0.30806 12.217 0.129762 15.2817Z" fill="#A7DAFF"/>
</svg>
