<svg width="50" height="50" viewBox="0 0 50 50" fill="none" xmlns="http://www.w3.org/2000/svg">
<path d="M28.5428 22.766C28.5428 23.198 28.4528 23.624 28.2728 24.044C28.0928 24.452 27.8588 24.854 27.5708 25.25C27.2948 25.634 26.9768 26.012 26.6168 26.384C26.2568 26.744 25.8968 27.098 25.5368 27.446C25.3448 27.626 25.1288 27.842 24.8888 28.094C24.6488 28.346 24.4208 28.598 24.2048 28.85C23.9888 29.102 23.8028 29.348 23.6468 29.588C23.4908 29.816 23.4068 30.008 23.3948 30.164H28.9388V32H21.0008C20.9888 31.904 20.9828 31.79 20.9828 31.658C20.9828 31.514 20.9828 31.406 20.9828 31.334C20.9828 30.758 21.0728 30.23 21.2528 29.75C21.4448 29.258 21.6908 28.802 21.9908 28.382C22.2908 27.962 22.6268 27.566 22.9988 27.194C23.3708 26.822 23.7428 26.456 24.1148 26.096C24.4028 25.82 24.6788 25.55 24.9428 25.286C25.2068 25.022 25.4348 24.764 25.6268 24.512C25.8308 24.248 25.9928 23.984 26.1128 23.72C26.2328 23.444 26.2928 23.162 26.2928 22.874C26.2928 22.25 26.1128 21.806 25.7528 21.542C25.3928 21.278 24.9548 21.146 24.4388 21.146C24.1028 21.146 23.7908 21.194 23.5028 21.29C23.2148 21.386 22.9568 21.5 22.7288 21.632C22.5128 21.764 22.3208 21.902 22.1528 22.046C21.9848 22.178 21.8588 22.286 21.7748 22.37L20.6948 20.84C21.1988 20.36 21.7868 19.976 22.4588 19.688C23.1428 19.388 23.8748 19.238 24.6548 19.238C25.9868 19.238 26.9648 19.556 27.5888 20.192C28.2248 20.816 28.5428 21.674 28.5428 22.766Z" fill="#0597F2"/>
<path d="M41.2201 50.0001C44.0416 48.8545 46.204 46.7867 47.9217 43.7525C49.6395 40.7183 50.3046 37.7917 49.8715 34.7184L48.6514 34C49.049 36.1319 48.054 40.0349 46.4425 42.8815C44.8309 45.7282 42.0091 48.567 39.9999 49.2817L41.2201 50.0001Z" fill="#A7DAFF"/>
<path d="M0.129762 15.2817L1.34978 16.0001C0.952165 13.8682 1.95183 9.95675 3.56321 7.11008C5.17459 4.2634 7.9911 1.43318 10.0001 0.718429L8.78008 0C5.95413 1.15415 3.80167 3.20492 2.08415 6.2391C0.366633 9.27329 -0.30806 12.217 0.129762 15.2817Z" fill="#A7DAFF"/>
</svg>
