<svg width="50" height="50" viewBox="0 0 50 50" fill="none" xmlns="http://www.w3.org/2000/svg">
<path d="M24.1328 32.27C23.8088 32.27 23.4728 32.246 23.1248 32.198C22.7888 32.162 22.4648 32.108 22.1528 32.036C21.8528 31.976 21.5768 31.91 21.3248 31.838C21.0728 31.754 20.8808 31.676 20.7488 31.604L21.1808 29.75C21.4328 29.87 21.7988 30.008 22.2788 30.164C22.7588 30.308 23.3528 30.38 24.0608 30.38C25.0088 30.38 25.6928 30.2 26.1128 29.84C26.5328 29.468 26.7428 28.976 26.7428 28.364C26.7428 27.968 26.6588 27.638 26.4908 27.374C26.3348 27.11 26.1128 26.9 25.8248 26.744C25.5488 26.576 25.2248 26.462 24.8528 26.402C24.4928 26.33 24.1088 26.294 23.7008 26.294H22.9628V24.53H23.8628C24.1388 24.53 24.4148 24.506 24.6908 24.458C24.9788 24.398 25.2368 24.302 25.4648 24.17C25.6928 24.026 25.8788 23.84 26.0228 23.612C26.1668 23.384 26.2388 23.09 26.2388 22.73C26.2388 22.442 26.1848 22.196 26.0768 21.992C25.9688 21.788 25.8248 21.62 25.6448 21.488C25.4768 21.356 25.2788 21.26 25.0508 21.2C24.8228 21.14 24.5828 21.11 24.3308 21.11C23.7908 21.11 23.3108 21.194 22.8908 21.362C22.4708 21.518 22.0988 21.698 21.7748 21.902L20.9828 20.282C21.1508 20.174 21.3548 20.06 21.5948 19.94C21.8348 19.82 22.0988 19.706 22.3868 19.598C22.6868 19.49 23.0048 19.406 23.3408 19.346C23.6768 19.274 24.0308 19.238 24.4028 19.238C25.0988 19.238 25.6988 19.322 26.2028 19.49C26.7068 19.658 27.1208 19.898 27.4448 20.21C27.7808 20.51 28.0268 20.87 28.1828 21.29C28.3508 21.698 28.4348 22.148 28.4348 22.64C28.4348 23.216 28.2728 23.732 27.9488 24.188C27.6368 24.644 27.2288 24.992 26.7248 25.232C27.3728 25.46 27.9068 25.838 28.3268 26.366C28.7588 26.894 28.9748 27.572 28.9748 28.4C28.9748 28.952 28.8788 29.468 28.6868 29.948C28.4948 30.416 28.2008 30.824 27.8048 31.172C27.4088 31.508 26.9048 31.778 26.2928 31.982C25.6928 32.174 24.9728 32.27 24.1328 32.27Z" fill="#0597F2"/>
<path d="M41.2201 50.0001C44.0416 48.8545 46.204 46.7867 47.9217 43.7525C49.6395 40.7183 50.3046 37.7917 49.8715 34.7184L48.6514 34C49.049 36.1319 48.054 40.0349 46.4425 42.8815C44.8309 45.7282 42.0091 48.567 39.9999 49.2817L41.2201 50.0001Z" fill="#A7DAFF"/>
<path d="M0.129762 15.2817L1.34978 16.0001C0.952165 13.8682 1.95183 9.95675 3.56321 7.11008C5.17459 4.2634 7.9911 1.43318 10.0001 0.718429L8.78008 0C5.95413 1.15415 3.80167 3.20492 2.08415 6.2391C0.366633 9.27329 -0.30806 12.217 0.129762 15.2817Z" fill="#A7DAFF"/>
</svg>
