<svg width="50" height="50" viewBox="0 0 50 50" fill="none" xmlns="http://www.w3.org/2000/svg">
<path d="M25.9508 22.208C25.6628 22.556 25.3628 22.928 25.0508 23.324C24.7508 23.72 24.4568 24.134 24.1688 24.566C23.8808 24.998 23.6048 25.442 23.3408 25.898C23.0768 26.342 22.8368 26.786 22.6208 27.23H25.9508V22.208ZM28.0748 19.526V27.23H29.4788V29.012H28.0748V32H25.9508V29.012H20.4788V27.464C20.7188 26.936 21.0368 26.33 21.4328 25.646C21.8408 24.962 22.2908 24.26 22.7828 23.54C23.2748 22.82 23.7968 22.112 24.3488 21.416C24.9008 20.72 25.4528 20.09 26.0048 19.526H28.0748Z" fill="#0597F2"/>
<path d="M41.2201 50.0001C44.0416 48.8545 46.204 46.7867 47.9217 43.7525C49.6395 40.7183 50.3046 37.7917 49.8716 34.7184L48.6514 34C49.0491 36.1319 48.0541 40.0349 46.4425 42.8815C44.8309 45.7282 42.0092 48.567 39.9999 49.2817L41.2201 50.0001Z" fill="#A7DAFF"/>
<path d="M0.129762 15.2817L1.34978 16.0001C0.952165 13.8682 1.95183 9.95675 3.56321 7.11008C5.17459 4.2634 7.9911 1.43318 10.0001 0.718429L8.78008 0C5.95413 1.15415 3.80167 3.20492 2.08415 6.2391C0.366633 9.27329 -0.30806 12.217 0.129762 15.2817Z" fill="#A7DAFF"/>
</svg>
