<svg width="50" height="50" viewBox="0 0 50 50" fill="none" xmlns="http://www.w3.org/2000/svg">
<path d="M21.5048 22.118C22.2008 21.842 22.8968 21.488 23.5928 21.056C24.3008 20.624 24.9248 20.114 25.4648 19.526H26.9948V32H24.8168V22.442C24.4928 22.694 24.0848 22.94 23.5928 23.18C23.1008 23.42 22.6268 23.618 22.1708 23.774L21.5048 22.118Z" fill="#0597F2"/>
<path d="M41.2201 50.0001C44.0416 48.8545 46.204 46.7867 47.9217 43.7525C49.6395 40.7183 50.3046 37.7917 49.8716 34.7184L48.6514 34C49.0491 36.1319 48.0541 40.0349 46.4425 42.8815C44.8309 45.7282 42.0092 48.567 39.9999 49.2817L41.2201 50.0001Z" fill="#A7DAFF"/>
<path d="M0.129762 15.2817L1.34978 16.0001C0.952165 13.8682 1.95183 9.95675 3.56321 7.11008C5.17459 4.2634 7.9911 1.43318 10.0001 0.718429L8.78008 0C5.95413 1.15415 3.80167 3.20492 2.08415 6.2391C0.366633 9.27329 -0.30806 12.217 0.129762 15.2817Z" fill="#A7DAFF"/>
</svg>
