<svg width="50" height="50" viewBox="0 0 50 50" fill="none" xmlns="http://www.w3.org/2000/svg">
<path d="M26.7788 28.436C26.7788 28.04 26.7008 27.686 26.5448 27.374C26.3888 27.062 26.1128 26.798 25.7168 26.582C25.3328 26.366 24.8108 26.204 24.1508 26.096C23.5028 25.988 22.6808 25.934 21.6848 25.934C21.8168 24.782 21.9188 23.69 21.9908 22.658C22.0628 21.614 22.1228 20.57 22.1708 19.526H28.5428V21.362H24.0248C24.0128 21.566 23.9948 21.8 23.9708 22.064C23.9588 22.316 23.9408 22.574 23.9168 22.838C23.9048 23.102 23.8868 23.354 23.8628 23.594C23.8388 23.834 23.8148 24.038 23.7908 24.206C25.5668 24.302 26.8748 24.71 27.7148 25.43C28.5668 26.138 28.9928 27.11 28.9928 28.346C28.9928 28.91 28.8968 29.432 28.7048 29.912C28.5128 30.392 28.2188 30.806 27.8228 31.154C27.4268 31.502 26.9288 31.778 26.3288 31.982C25.7288 32.174 25.0268 32.27 24.2228 32.27C23.8988 32.27 23.5688 32.246 23.2328 32.198C22.8968 32.15 22.5728 32.09 22.2608 32.018C21.9608 31.958 21.6908 31.892 21.4508 31.82C21.2108 31.748 21.0308 31.682 20.9108 31.622L21.3248 29.786C21.5768 29.906 21.9368 30.038 22.4048 30.182C22.8848 30.314 23.4668 30.38 24.1508 30.38C24.6188 30.38 25.0208 30.332 25.3568 30.236C25.6928 30.128 25.9628 29.984 26.1668 29.804C26.3828 29.624 26.5388 29.42 26.6348 29.192C26.7308 28.952 26.7788 28.7 26.7788 28.436Z" fill="#0597F2"/>
<path d="M41.2201 50.0001C44.0416 48.8545 46.204 46.7867 47.9217 43.7525C49.6395 40.7183 50.3046 37.7917 49.8715 34.7184L48.6514 34C49.049 36.1319 48.054 40.0349 46.4425 42.8815C44.8309 45.7282 42.0091 48.567 39.9999 49.2817L41.2201 50.0001Z" fill="#A7DAFF"/>
<path d="M0.129762 15.2817L1.34978 16.0001C0.952165 13.8682 1.95183 9.95675 3.56321 7.11008C5.17459 4.2634 7.9911 1.43318 10.0001 0.718429L8.78008 0C5.95413 1.15415 3.80167 3.20492 2.08415 6.2391C0.366633 9.27329 -0.30806 12.217 0.129762 15.2817Z" fill="#A7DAFF"/>
</svg>
