<svg width="140" height="52" viewBox="0 0 140 52" fill="none" xmlns="http://www.w3.org/2000/svg">
<g clip-path="url(#clip0_703_2310)">
<path d="M122.438 33.0087H126.892V18.5703H122.438V33.0087ZM128.499 18.5703V20.2087H133.446V33.0087H135.05V20.2087H139.999V18.5703H128.499Z" fill="#141414"/>
<path d="M111.901 17.9844C110.385 17.9844 108.904 18.4425 107.643 19.3008C106.383 20.1591 105.401 21.379 104.821 22.8063C104.241 24.2336 104.089 25.8041 104.385 27.3193C104.681 28.8345 105.411 30.2263 106.482 31.3187C107.554 32.4111 108.919 33.155 110.406 33.4564C111.892 33.7578 113.433 33.6031 114.833 33.0119C116.234 32.4207 117.43 31.4196 118.272 30.1351C119.114 28.8505 119.564 27.3403 119.564 25.7955C119.564 24.7696 119.366 23.7537 118.981 22.8058C118.596 21.858 118.032 20.9967 117.32 20.2713C116.609 19.5459 115.764 18.9706 114.834 18.5782C113.904 18.1858 112.907 17.984 111.901 17.9844ZM111.901 31.9681C110.702 31.9687 109.531 31.607 108.534 30.9286C107.537 30.2502 106.76 29.2858 106.301 28.1572C105.842 27.0286 105.722 25.7866 105.956 24.5884C106.189 23.3902 106.766 22.2895 107.614 21.4257C108.461 20.5618 109.541 19.9736 110.717 19.7354C111.892 19.4972 113.111 19.6197 114.218 20.0875C115.325 20.5553 116.271 21.3473 116.937 22.3633C117.602 23.3794 117.957 24.5738 117.957 25.7955C117.957 27.4326 117.319 29.0026 116.183 30.1602C115.047 31.3178 113.507 31.9681 111.901 31.9681ZM95.7464 18.5718H89.375V33.022H95.7464C96.6893 33.0415 97.6265 32.8689 98.5032 32.5146C99.3798 32.1602 100.178 31.6311 100.852 30.9583C101.525 30.2854 102.061 29.4824 102.426 28.5961C102.791 27.7099 102.979 26.7582 102.979 25.7969C102.979 24.8356 102.791 23.884 102.426 22.9977C102.061 22.1115 101.525 21.3084 100.852 20.6356C100.178 19.9628 99.3798 19.4337 98.5032 19.0793C97.6265 18.7249 96.6893 18.5524 95.7464 18.5718ZM95.7464 28.4818H93.8321V23.1121H95.7551C96.1083 23.1001 96.4603 23.1607 96.7901 23.2903C97.1199 23.4198 97.4208 23.6157 97.6748 23.8662C97.9289 24.1167 98.1309 24.4167 98.2688 24.7484C98.4068 25.0801 98.4779 25.4367 98.4779 25.7969C98.4779 26.1572 98.4068 26.5138 98.2688 26.8455C98.1309 27.1772 97.9289 27.4772 97.6748 27.7277C97.4208 27.9782 97.1199 28.174 96.7901 28.3036C96.4603 28.4331 96.1083 28.4937 95.7551 28.4818H95.7464Z" fill="#141414"/>
<path d="M57.6328 23.1121H61.6873V33.022H66.1415V23.1121H70.1961V18.5718H57.6328V23.1121ZM78.8322 17.9844C77.3166 17.9844 75.835 18.4425 74.5748 19.3008C73.3147 20.1591 72.3325 21.379 71.7525 22.8063C71.1725 24.2336 71.0207 25.8041 71.3164 27.3193C71.6121 28.8345 72.3419 30.2263 73.4136 31.3187C74.4853 32.4111 75.8507 33.155 77.3372 33.4564C78.8237 33.7578 80.3645 33.6031 81.7647 33.0119C83.165 32.4207 84.3618 31.4196 85.2038 30.135C86.0458 28.8505 86.4953 27.3403 86.4953 25.7954C86.4953 23.7238 85.6879 21.737 84.2508 20.2722C82.8137 18.8073 80.8646 17.9844 78.8322 17.9844ZM78.8322 31.9681C77.6338 31.9681 76.4623 31.6059 75.4659 30.9272C74.4695 30.2484 73.693 29.2838 73.2345 28.1551C72.776 27.0265 72.6562 25.7846 72.8902 24.5866C73.1242 23.3886 73.7015 22.2882 74.5491 21.4246C75.3967 20.561 76.4766 19.9731 77.652 19.7352C78.8275 19.4972 80.0457 19.6199 81.1528 20.0878C82.2598 20.5557 83.2058 21.3477 83.8712 22.3636C84.5366 23.3796 84.8914 24.5739 84.8908 25.7954C84.8908 26.6063 84.7341 27.4092 84.4296 28.1583C84.1251 28.9074 83.6788 29.588 83.1161 30.1612C82.5535 30.7345 81.8856 31.1891 81.1505 31.4991C80.4155 31.8092 79.6277 31.9685 78.8322 31.9681Z" fill="#141414"/>
<path d="M40.173 29.9965L24.5933 20.8148C24.2404 20.6089 23.947 20.3116 23.7427 19.9529C23.5384 19.5941 23.4305 19.1867 23.4298 18.7718V0.954812C23.4274 0.787417 23.4689 0.622411 23.5498 0.476803C23.6307 0.331195 23.7482 0.210254 23.8902 0.126446C24.0321 0.0426375 24.1934 -0.00100473 24.3574 1.75555e-05C24.5214 0.00103984 24.6822 0.0466897 24.8231 0.132261L40.4028 9.31989C40.7554 9.52531 41.0487 9.82211 41.253 10.1803C41.4573 10.5385 41.5654 10.9454 41.5663 11.3599V29.1769C41.5681 29.3441 41.5263 29.5087 41.4452 29.6539C41.364 29.7991 41.2465 29.9196 41.1046 30.003C40.9627 30.0865 40.8017 30.1299 40.6379 30.1287C40.4742 30.1276 40.3137 30.0819 40.173 29.9965Z" fill="#0597F2"/>
<path d="M43.6066 16.6769L28.027 25.8645C27.6741 26.0704 27.3807 26.3677 27.1764 26.7265C26.9721 27.0852 26.8641 27.4926 26.8634 27.9075V45.7245C26.863 45.8901 26.9054 46.0528 26.9863 46.1963C27.0672 46.3398 27.1838 46.459 27.3242 46.5418C27.4647 46.6247 27.624 46.6682 27.7862 46.6681C27.9484 46.668 28.1077 46.6242 28.248 46.5411L43.8364 37.3594C44.1891 37.154 44.4824 36.8572 44.6867 36.499C44.891 36.1408 44.999 35.7339 44.9999 35.3194V17.5024C45.0019 17.3351 44.9603 17.1703 44.8793 17.0248C44.7984 16.8794 44.681 16.7584 44.5393 16.6745C44.3976 16.5905 44.2365 16.5465 44.0726 16.5469C43.9088 16.5473 43.7479 16.5922 43.6066 16.6769Z" fill="#49D907"/>
<path d="M41.5563 17.8867V29.1708C41.5558 29.336 41.5128 29.4982 41.4317 29.6412C41.3506 29.7842 41.2341 29.9029 41.094 29.9856C40.9539 30.0682 40.7949 30.1119 40.6331 30.1122C40.4712 30.1125 40.3121 30.0695 40.1717 29.9874L30.59 24.3543L41.5563 17.8867Z" fill="#0597AB"/>
<path d="M1.3847 35.3418L16.9644 26.1512C17.3161 25.944 17.6085 25.6463 17.8126 25.2879C18.0167 24.9295 18.1254 24.5228 18.1279 24.1082V6.29124C18.1283 6.12567 18.0859 5.96292 18.005 5.81942C17.9241 5.67591 17.8075 5.55673 17.6671 5.47391C17.5266 5.39108 17.3673 5.34753 17.2051 5.34766C17.0429 5.34778 16.8836 5.39158 16.7433 5.47463L1.16363 14.6533C0.810744 14.8593 0.517333 15.1566 0.313036 15.5153C0.10874 15.874 0.00079502 16.2814 0.000104868 16.6964V34.5133C-0.00235597 34.6799 0.0385326 34.8442 0.118595 34.9894C0.198658 35.1345 0.315026 35.2554 0.455817 35.3397C0.596608 35.4239 0.756778 35.4685 0.919971 35.4689C1.08316 35.4693 1.24353 35.4254 1.3847 35.3418Z" fill="#F24607"/>
<path d="M4.81536 22.0151L20.395 31.2027C20.7463 31.4098 21.0385 31.7069 21.2426 32.0648C21.4467 32.4226 21.5556 32.8287 21.5585 33.2428V51.0598C21.558 51.225 21.5151 51.3872 21.434 51.5302C21.3529 51.6731 21.2364 51.7919 21.0963 51.8745C20.9561 51.9572 20.7972 52.0009 20.6353 52.0012C20.4735 52.0015 20.3144 51.9585 20.1739 51.8764L4.58556 42.6977C4.2329 42.4922 3.9396 42.1954 3.7353 41.8372C3.531 41.479 3.42294 41.0721 3.42204 40.6576V22.8406C3.41916 22.673 3.4602 22.5076 3.54091 22.3616C3.62162 22.2155 3.73908 22.0942 3.88113 22.01C4.02319 21.9258 4.18468 21.8819 4.34893 21.8828C4.51317 21.8837 4.6742 21.9294 4.81536 22.0151Z" fill="#EAF205"/>
<path d="M14.397 27.6615L3.43362 34.1261V22.842C3.43323 22.6764 3.47563 22.5137 3.55653 22.3702C3.63744 22.2267 3.75399 22.1075 3.89443 22.0247C4.03487 21.9419 4.19423 21.8983 4.35642 21.8984C4.51861 21.8986 4.6779 21.9424 4.81821 22.0254L14.397 27.6615Z" fill="#EAB705"/>
</g>
<defs>
<clipPath id="clip0_703_2310">
<rect width="140" height="52" fill="white"/>
</clipPath>
</defs>
</svg>
