<svg width="50" height="50" viewBox="0 0 50 50" fill="none" xmlns="http://www.w3.org/2000/svg">
<rect width="50" height="50" rx="6" fill="#E7F5FF"/>
<path d="M23.1983 15.4669C23.825 13.9539 24.1862 12.3461 24.2679 10.714C24.2876 10.32 24.6055 10 25 10C25.3945 10 25.7124 10.32 25.7321 10.714C25.8138 12.3461 26.175 13.9539 26.8017 15.4669C27.5196 17.2001 28.5719 18.775 29.8985 20.1015C31.225 21.4281 32.7999 22.4804 34.5331 23.1983C36.0461 23.825 37.6539 24.1862 39.286 24.2679C39.68 24.2876 40 24.6055 40 25C40 25.3945 39.68 25.7124 39.286 25.7321C37.6539 25.8138 36.0461 26.175 34.5331 26.8017C32.7999 27.5196 31.225 28.5719 29.8985 29.8985C28.5719 31.225 27.5196 32.7999 26.8017 34.5331C26.175 36.0461 25.8138 37.6539 25.7321 39.286C25.7124 39.68 25.3945 40 25 40C24.6055 40 24.2876 39.68 24.2679 39.286C24.1862 37.6539 23.825 36.0461 23.1983 34.5331C22.4804 32.7999 21.4281 31.225 20.1015 29.8985C18.775 28.5719 17.2001 27.5196 15.4669 26.8017C13.9539 26.175 12.3461 25.8138 10.714 25.7321C10.32 25.7124 10 25.3945 10 25C10 24.6055 10.32 24.2876 10.714 24.2679C12.3461 24.1862 13.9539 23.825 15.4669 23.1983C17.2001 22.4804 18.775 21.4281 20.1015 20.1015C21.4281 18.775 22.4804 17.2001 23.1983 15.4669Z" fill="url(#paint0_linear_779_6521)"/>
<defs>
<linearGradient id="paint0_linear_779_6521" x1="25" y1="10" x2="25" y2="40" gradientUnits="userSpaceOnUse">
<stop stop-color="#0597F2" stop-opacity="0"/>
<stop offset="1" stop-color="#0597F2"/>
</linearGradient>
</defs>
</svg>
