<svg width="50" height="50" viewBox="0 0 50 50" fill="none" xmlns="http://www.w3.org/2000/svg">
<rect width="50" height="50" rx="6" fill="#E7F5FF"/>
<ellipse cx="36" cy="14" rx="4" ry="4" transform="rotate(-180 36 14)" fill="url(#paint0_linear_779_6524)"/>
<ellipse cx="14" cy="36" rx="4" ry="4" transform="rotate(-180 14 36)" fill="url(#paint1_linear_779_6524)"/>
<path d="M21.5385 15.7692C21.5385 18.146 21.3673 20.9594 23.0479 22.64L27.36 26.9521C29.0406 28.6327 31.854 28.4615 34.2308 28.4615C37.417 28.4615 40 31.0445 40 34.2308C40 37.417 37.417 40 34.2308 40C31.0445 40 28.4615 37.417 28.4615 34.2308C28.4615 31.854 28.6327 29.0406 26.9521 27.36L22.64 23.0479C20.9594 21.3673 18.146 21.5385 15.7692 21.5385C12.583 21.5385 10 18.9555 10 15.7692C10 12.583 12.583 10 15.7692 10C18.9555 10 21.5385 12.583 21.5385 15.7692Z" fill="url(#paint2_linear_779_6524)"/>
<defs>
<linearGradient id="paint0_linear_779_6524" x1="36" y1="10" x2="36" y2="18" gradientUnits="userSpaceOnUse">
<stop stop-color="#0597F2"/>
<stop offset="1" stop-color="#0597F2" stop-opacity="0"/>
</linearGradient>
<linearGradient id="paint1_linear_779_6524" x1="14" y1="32" x2="14" y2="40" gradientUnits="userSpaceOnUse">
<stop stop-color="#0597F2"/>
<stop offset="1" stop-color="#0597F2" stop-opacity="0"/>
</linearGradient>
<linearGradient id="paint2_linear_779_6524" x1="25" y1="10" x2="25" y2="40" gradientUnits="userSpaceOnUse">
<stop stop-color="#0597F2" stop-opacity="0"/>
<stop offset="1" stop-color="#0597F2"/>
</linearGradient>
</defs>
</svg>
