<svg width="70" height="70" viewBox="0 0 70 70" fill="none" xmlns="http://www.w3.org/2000/svg">
<rect width="70" height="70" rx="10" fill="#E7F5FF"/>
<path d="M36.2639 23.8115C37.3098 23.8115 37.7727 23.8124 38.1545 23.8464C42.3988 24.2241 45.7624 27.5675 46.1424 31.7862C46.1766 32.1657 46.1775 32.6258 46.1775 33.6654V34.8609C46.1775 35.3611 46.5855 35.7667 47.0888 35.7667C47.592 35.7667 48 35.3611 48 34.8609V33.6045C48 32.6421 48 32.0952 47.9576 31.6247C47.499 26.5331 43.4394 22.498 38.317 22.0421C37.8436 22 37.2934 22 36.3251 22H35.0611C34.5579 22 34.1499 22.4055 34.1499 22.9057C34.1499 23.406 34.5579 23.8115 35.0611 23.8115L36.2639 23.8115Z" fill="url(#paint0_linear_330_8451)"/>
<path d="M29.122 25.3516C27.8437 24.1841 25.8789 24.1841 24.6007 25.3516C24.5483 25.3994 24.4924 25.455 24.4199 25.5271L23.3294 26.611C22.2322 27.7016 21.7715 29.2739 22.1082 30.7796C24.0181 39.3224 30.7302 45.9941 39.3248 47.8925C40.8396 48.2271 42.4214 47.7692 43.5187 46.6786L44.609 45.5948C44.6817 45.5226 44.7376 45.4671 44.7857 45.415C45.9603 44.1445 45.9603 42.1915 44.7857 40.9209C44.7376 40.8689 44.6817 40.8133 44.609 40.7411L42.8239 38.9668C41.5845 37.7348 39.7128 37.3825 38.106 38.0787C37.1862 38.4772 36.1146 38.2755 35.4051 37.5702L32.493 34.6757C31.7835 33.9704 31.5805 32.9053 31.9815 31.991C32.6819 30.3939 32.3274 28.5335 31.088 27.3016L29.3028 25.5271C29.2302 25.455 29.1743 25.3994 29.122 25.3516Z" fill="url(#paint1_linear_330_8451)"/>
<path d="M35.9201 26.2697C35.4168 26.2697 35.0089 26.6752 35.0089 27.1754C35.0089 27.6757 35.4168 28.0812 35.9201 28.0812H36.6074C36.7134 28.0812 36.7568 28.0812 36.7921 28.0817C39.586 28.1215 41.8413 30.3631 41.8813 33.1402C41.8818 33.1753 41.8818 33.2185 41.8818 33.3238V34.007C41.8818 34.5072 42.2898 34.9127 42.793 34.9127C43.2963 34.9127 43.7043 34.5072 43.7043 34.007V33.3151C43.7043 33.2212 43.7043 33.1641 43.7036 33.1143C43.6494 29.357 40.5982 26.3242 36.8182 26.2704C36.7681 26.2697 36.7106 26.2697 36.6162 26.2697H35.9201Z" fill="url(#paint2_linear_330_8451)"/>
<defs>
<linearGradient id="paint0_linear_330_8451" x1="35" y1="22" x2="35" y2="48" gradientUnits="userSpaceOnUse">
<stop stop-color="#0597F2" stop-opacity="0"/>
<stop offset="1" stop-color="#0597F2"/>
</linearGradient>
<linearGradient id="paint1_linear_330_8451" x1="35" y1="22" x2="35" y2="48" gradientUnits="userSpaceOnUse">
<stop stop-color="#0597F2" stop-opacity="0"/>
<stop offset="1" stop-color="#0597F2"/>
</linearGradient>
<linearGradient id="paint2_linear_330_8451" x1="35" y1="22" x2="35" y2="48" gradientUnits="userSpaceOnUse">
<stop stop-color="#0597F2" stop-opacity="0"/>
<stop offset="1" stop-color="#0597F2"/>
</linearGradient>
</defs>
</svg>
