<svg width="70" height="70" viewBox="0 0 70 70" fill="none" xmlns="http://www.w3.org/2000/svg">
<rect width="70" height="70" rx="10" fill="#E7F5FF"/>
<path fill-rule="evenodd" clip-rule="evenodd" d="M35.0603 22C37.5091 22 39.4285 22 40.9514 22.165C42.5054 22.3333 43.7646 22.6831 44.8397 23.4642C45.4905 23.9371 46.0629 24.5095 46.5358 25.1603C47.3169 26.2354 47.6667 27.4946 47.835 29.0486C48 30.5715 48 32.491 48 34.9396V35.0605C48 37.5091 48 39.4285 47.835 40.9514C47.6667 42.5054 47.3169 43.7646 46.5358 44.8397C46.0629 45.4905 45.4905 46.0629 44.8397 46.5358C43.7646 47.3169 42.5054 47.6667 40.9514 47.835C39.4285 48 37.509 48 35.0604 48H34.9395C32.4909 48 30.5715 48 29.0486 47.835C27.4946 47.6667 26.2354 47.3169 25.1603 46.5358C24.5095 46.0629 23.9371 45.4905 23.4642 44.8397C22.6831 43.7646 22.3333 42.5054 22.165 40.9514C22 39.4285 22 37.5091 22 35.0603V34.9397C22 32.491 22 30.5715 22.165 29.0486C22.3333 27.4946 22.6831 26.2354 23.4642 25.1603C23.9371 24.5095 24.5095 23.9371 25.1603 23.4642C26.2354 22.6831 27.4946 22.3333 29.0486 22.165C30.5715 22 32.4909 22 34.9397 22H35.0603ZM36 28.3333C36 27.781 35.5523 27.3333 35 27.3333C34.4477 27.3333 34 27.781 34 28.3333V41.6667C34 42.219 34.4477 42.6667 35 42.6667C35.5523 42.6667 36 42.219 36 41.6667V28.3333ZM41.3333 33.6667C41.3333 33.1144 40.8856 32.6667 40.3333 32.6667C39.781 32.6667 39.3333 33.1144 39.3333 33.6667V41.6667C39.3333 42.219 39.781 42.6667 40.3333 42.6667C40.8856 42.6667 41.3333 42.219 41.3333 41.6667V33.6667ZM30.6667 36.3333C30.6667 35.781 30.219 35.3333 29.6667 35.3333C29.1144 35.3333 28.6667 35.781 28.6667 36.3333V41.6667C28.6667 42.219 29.1144 42.6667 29.6667 42.6667C30.219 42.6667 30.6667 42.219 30.6667 41.6667V36.3333Z" fill="url(#paint0_linear_330_8444)"/>
<defs>
<linearGradient id="paint0_linear_330_8444" x1="35" y1="22" x2="35" y2="48" gradientUnits="userSpaceOnUse">
<stop stop-color="#0597F2" stop-opacity="0"/>
<stop offset="1" stop-color="#0597F2"/>
</linearGradient>
</defs>
</svg>
